<svg xmlns="http://www.w3.org/2000/svg" xmlns:xlink="http://www.w3.org/1999/xlink" width="260" height="64" viewBox="0 0 260 64" role="img" aria-labelledby="title desc"><title id="title">Linkedin</title><desc id="desc">Linkedin link</desc><style><![CDATA[@media (prefers-reduced-motion:reduce){*{animation:none!important}}]]></style><defs><path id="gc282" d="M55 -602V-666L101 -712H171L217 -666V-602L171 -556H101ZM70 -498H202V0H70Z"/><path id="gc313" d="M60 -498H182V-415L265 -498H426L537 -387V0H405V-351L371 -386H287L192 -290V0H60Z"/><path id="gc92" d="M65 -700H201V-115H551V0H65Z"/><path id="gc74" d="M70 -700H206V0H70Z"/><path id="gc103" d="M65 -700H187L499 -225H501V-700H632V0H510L198 -474H196V0H65Z"/><path id="gc90" d="M65 -700H201V-407H307L476 -700H629L424 -351L646 0H490L306 -291H201V0H65Z"/><path id="gc43" d="M65 -700H571V-585H201V-408H542V-295H201V-115H571V0H65Z"/><path id="gc37" d="M65 -700H513L633 -580V-120L513 0H65ZM446 -116 497 -167V-533L446 -584H201V-116Z"/></defs><path d="M23 10H254L254 10V45L241 58H10L10 58V23Z" fill="none" stroke="#A974FF" stroke-width="2"/><path d="M17 4H248L248 4V39L235 52H4L4 52V17Z" fill="#19E6FF"/><g transform="translate(34 28)"><rect x="-10" y="-10" width="20" height="20" rx="2" fill="#08031A"/><g transform="translate(-6 5) scale(0.014)" fill="#19E6FF"><use xlink:href="#gc282"/><use xlink:href="#gc313" x="272"/></g></g><path d="M56 16V40" stroke="#08031A" stroke-opacity=".35"/><g transform="translate(70 34.3) scale(0.018)" fill="#08031A"><use xlink:href="#gc92"/><use xlink:href="#gc74" x="721"/><use xlink:href="#gc103" x="1157"/><use xlink:href="#gc90" x="2014"/><use xlink:href="#gc43" x="2825"/><use xlink:href="#gc37" x="3591"/><use xlink:href="#gc74" x="4439"/><use xlink:href="#gc103" x="4875"/></g><path d="M214 34L224 24M217 24H224V31" fill="none" stroke="#08031A" stroke-width="2.2" stroke-linecap="square"/></svg>
