<svg xmlns="http://www.w3.org/2000/svg" xmlns:xlink="http://www.w3.org/1999/xlink" width="616" height="204" viewBox="0 0 616 204" role="img" aria-labelledby="title desc"><title id="title">OmniDrama: Your shows in one local library</title><desc id="desc">OmniDrama (local development). A Windows video library: searchable catalogue, episode player with saved progress, and a studio that converts uploads with FFmpeg.</desc><style><![CDATA[@media (prefers-reduced-motion:reduce){*{animation:none!important}}]]></style><defs><pattern id="grid" width="32" height="32" patternUnits="userSpaceOnUse"><path d="M32 .5H.5V32" fill="none" stroke="#241659"/><rect x="-1" y="-1" width="3" height="3" fill="#3B2A7C"/></pattern><pattern id="scan" width="8" height="4" patternUnits="userSpaceOnUse"><rect width="8" height="1.3" fill="#000" opacity=".28"/></pattern><pattern id="hazard" width="14" height="14" patternUnits="userSpaceOnUse" patternTransform="rotate(45)"><rect width="14" height="14" fill="#08031A"/><rect width="7" height="14" fill="#FCEE0A"/></pattern><clipPath id="thumb"><path d="M40 24H180L180 24V164L164 180H24L24 180V40Z"/></clipPath><linearGradient id="card" x1="0" y1="0" x2="1" y2="1"><stop offset="0" stop-color="#170C3C"/><stop offset="1" stop-color="#0B0522"/></linearGradient><linearGradient id="art" x1="0" y1="0" x2="1" y2="1"><stop offset="0" stop-color="#2F5BFF"/><stop offset="1" stop-color="#8A3DFF"/></linearGradient><path id="ga199" d="M485 17Q350 17 249 -32Q147 -81 91 -169Q34 -257 34 -375Q34 -493 91 -581Q147 -669 249 -718Q350 -767 485 -767Q620 -767 722 -718Q823 -669 880 -581Q936 -493 936 -375Q936 -257 880 -169Q823 -81 722 -32Q620 17 485 17ZM485 -190Q552 -190 601 -213Q649 -235 675 -276Q701 -318 701 -375Q701 -432 675 -474Q649 -515 601 -537Q552 -560 485 -560Q418 -560 370 -537Q321 -515 295 -474Q269 -432 269 -375Q269 -318 295 -276Q321 -235 370 -213Q418 -190 485 -190Z"/><path id="ga558" d="M25 -573H254L293 -336V0H64V-371ZM486 -590Q566 -590 622 -557Q678 -524 708 -464Q737 -403 737 -322V0H508V-289Q508 -345 482 -375Q455 -405 406 -405Q371 -405 345 -389Q320 -373 306 -344Q293 -315 293 -274L224 -310Q237 -403 275 -465Q312 -527 367 -559Q422 -590 486 -590ZM929 -590Q1009 -590 1066 -557Q1122 -524 1152 -464Q1181 -403 1181 -322V0H952V-289Q952 -345 926 -375Q899 -405 850 -405Q815 -405 789 -389Q764 -373 750 -344Q737 -315 737 -274L668 -310Q681 -403 718 -465Q756 -527 810 -559Q865 -590 929 -590Z"/><path id="ga564" d="M25 -573H254L293 -336V0H64V-371ZM497 -590Q581 -590 639 -557Q697 -524 728 -464Q760 -403 760 -322V0H530V-289Q530 -345 501 -375Q471 -405 417 -405Q379 -405 351 -389Q323 -373 308 -344Q293 -315 293 -274L224 -310Q237 -403 276 -465Q316 -527 373 -559Q430 -590 497 -590Z"/><path id="ga501" d="M52 -584 167 -560 281 -584V0H52ZM167 -622Q108 -622 72 -651Q36 -680 36 -729Q36 -779 72 -808Q108 -837 167 -837Q226 -837 262 -808Q297 -779 297 -729Q297 -680 262 -651Q226 -622 167 -622Z"/><path id="ga55" d="M451 -750Q586 -750 688 -703Q789 -657 845 -573Q902 -489 902 -375Q902 -262 845 -178Q789 -93 688 -47Q586 0 451 0H65V-750ZM296 -101 189 -207H469Q530 -207 574 -228Q619 -248 643 -286Q667 -324 667 -375Q667 -427 643 -465Q619 -502 574 -522Q530 -543 469 -543H189L296 -649Z"/><path id="ga630" d="M25 -573H259L293 -370V0H64V-377ZM554 -584V-389Q522 -395 495 -397Q469 -400 447 -400Q406 -400 371 -384Q336 -369 314 -331Q293 -294 293 -228L251 -280Q260 -342 276 -398Q291 -453 318 -497Q345 -540 385 -565Q426 -590 485 -590Q501 -590 518 -589Q535 -587 554 -584Z"/><path id="ga363" d="M563 0 536 -204 564 -286 536 -367 563 -573H801L763 -287L801 0ZM614 -286Q602 -195 562 -127Q521 -58 458 -21Q394 17 312 17Q229 17 165 -21Q101 -59 66 -127Q30 -196 30 -286Q30 -378 66 -446Q101 -515 165 -552Q229 -590 312 -590Q394 -590 458 -553Q521 -516 562 -448Q603 -379 614 -286ZM261 -286Q261 -248 277 -219Q292 -190 320 -173Q348 -156 384 -156Q421 -156 455 -173Q489 -190 515 -219Q541 -248 553 -286Q541 -324 515 -354Q489 -383 455 -400Q421 -417 384 -417Q348 -417 320 -400Q292 -383 277 -354Q261 -324 261 -286Z"/><path id="gf137" d="M230 -279 10 -730H156L324 -376L292 -386H386L352 -376L506 -730H644L440 -279ZM266 0V-301H404V0Z"/><path id="gf352" d="M340 19Q268 19 213 -4Q158 -27 120 -66Q82 -106 62 -156Q43 -206 43 -260V-281Q43 -336 63 -387Q84 -438 122 -477Q160 -516 216 -539Q270 -562 340 -562Q409 -562 464 -539Q518 -516 557 -477Q596 -438 616 -387Q636 -336 636 -281V-260Q636 -206 616 -156Q597 -106 559 -66Q521 -27 466 -4Q411 19 340 19ZM340 -100Q390 -100 426 -122Q460 -144 479 -183Q497 -222 497 -270Q497 -320 478 -359Q460 -398 424 -420Q389 -443 340 -443Q290 -443 255 -420Q220 -398 201 -359Q182 -320 182 -270Q182 -222 200 -183Q218 -144 254 -122Q289 -100 340 -100Z"/><path id="gf468" d="M264 17Q170 17 118 -45Q67 -106 67 -228V-544H206V-216Q206 -166 234 -137Q262 -108 310 -108Q358 -108 388 -139Q419 -170 419 -222V-544H558V0H448V-230H459Q459 -148 438 -94Q416 -38 375 -11Q333 17 270 17Z"/><path id="gf400" d="M79 0V-543H189V-313H186Q186 -430 236 -490Q286 -550 383 -550H403V-429H365Q294 -429 256 -391Q218 -354 218 -282V0Z"/><path id="gf414" d="M276 17Q164 17 100 -30Q37 -78 34 -162H158Q162 -134 190 -111Q218 -88 278 -88Q328 -88 357 -106Q387 -124 387 -154Q387 -182 364 -198Q342 -214 288 -219L240 -224Q148 -234 100 -276Q50 -318 50 -388Q50 -444 78 -482Q106 -520 156 -539Q206 -559 270 -559Q370 -559 432 -515Q494 -470 497 -386H372Q370 -414 344 -434Q318 -454 268 -454Q225 -454 201 -437Q176 -420 176 -392Q176 -367 196 -353Q216 -339 260 -334L308 -329Q404 -319 458 -276Q513 -233 513 -160Q513 -106 484 -66Q454 -26 401 -5Q348 17 276 17Z"/><path id="gf296" d="M79 0V-730H218V-304H194Q194 -386 215 -443Q236 -500 277 -530Q319 -560 382 -560H388Q482 -560 530 -496Q578 -432 578 -310V0H439V-323Q439 -374 409 -405Q380 -435 332 -435Q280 -435 249 -402Q218 -368 218 -314V0Z"/><path id="gf492" d="M265 0 368 -525H528L647 0H537L416 -522H474L366 0ZM224 0 223 -114H334L334 0ZM168 0 20 -543H155L296 0ZM572 0 572 -114H682L682 0ZM616 0 740 -543H867L736 0Z"/><path id="gf302" d="M105 0V-543H244V0ZM29 -439V-543H244V-439ZM156 -608Q115 -608 96 -629Q76 -650 76 -684Q76 -716 96 -738Q115 -759 156 -759Q196 -759 216 -738Q235 -716 235 -684Q235 -650 216 -629Q196 -608 156 -608Z"/><path id="gf341" d="M79 0V-543H189V-310H179Q179 -392 201 -448Q222 -504 266 -532Q310 -560 374 -560H380Q478 -560 528 -497Q578 -434 578 -310V0H439V-323Q439 -373 410 -404Q382 -435 332 -435Q280 -435 249 -403Q218 -372 218 -319V0Z"/><path id="gf222" d="M322 19Q252 19 200 -5Q147 -29 112 -69Q78 -110 60 -160Q43 -210 43 -262V-281Q43 -335 60 -385Q78 -436 112 -475Q146 -515 198 -538Q249 -562 316 -562Q404 -562 463 -523Q522 -484 553 -422Q583 -360 583 -288V-238H102V-322H496L453 -281Q453 -333 438 -370Q422 -407 392 -427Q362 -447 316 -447Q270 -447 238 -426Q206 -404 189 -365Q173 -326 173 -271Q173 -220 189 -180Q204 -140 238 -118Q270 -96 322 -96Q372 -96 404 -116Q436 -137 446 -166H574Q562 -111 528 -69Q494 -27 441 -4Q389 19 322 19Z"/><path id="gf318" d="M86 0V-730H225V0ZM18 -626V-730H225V-626Z"/><path id="gf180" d="M320 19Q249 19 197 -5Q146 -28 111 -69Q77 -109 60 -159Q43 -209 43 -261V-280Q43 -334 60 -385Q78 -436 113 -475Q148 -515 199 -538Q250 -562 318 -562Q390 -562 446 -534Q502 -507 535 -458Q568 -409 572 -344H438Q432 -386 402 -414Q372 -442 318 -442Q272 -442 242 -420Q212 -398 197 -360Q182 -321 182 -270Q182 -222 196 -184Q210 -145 241 -123Q272 -101 320 -101Q356 -101 382 -114Q408 -127 424 -150Q439 -172 442 -202H578Q574 -136 540 -86Q505 -36 448 -9Q392 19 320 19Z"/><path id="gf146" d="M408 0V-161H384V-340Q384 -386 362 -410Q338 -433 291 -433Q266 -433 231 -432Q196 -431 160 -430Q125 -428 97 -426V-544Q120 -546 149 -548Q178 -550 208 -550Q239 -551 266 -551Q350 -551 405 -529Q461 -506 489 -460Q518 -412 518 -336V0ZM232 14Q174 14 129 -7Q85 -28 60 -67Q36 -106 36 -161Q36 -220 65 -259Q94 -297 148 -316Q202 -334 274 -334H400V-252H272Q224 -252 198 -228Q173 -205 173 -168Q173 -130 198 -108Q224 -85 272 -85Q300 -85 325 -96Q350 -106 366 -131Q382 -156 384 -201L418 -162Q414 -105 391 -66Q368 -27 329 -6Q290 14 232 14Z"/><path id="gf165" d="M398 18Q331 18 280 -10Q229 -39 200 -94Q170 -148 168 -226H189V0H79V-730H218V-364L181 -308Q184 -392 214 -448Q244 -504 294 -532Q344 -560 406 -560Q463 -560 509 -539Q555 -518 588 -480Q620 -443 638 -393Q656 -342 656 -284V-262Q656 -204 638 -153Q620 -102 586 -64Q552 -25 504 -4Q457 18 398 18ZM366 -99Q412 -99 445 -121Q479 -144 498 -183Q516 -222 516 -273Q516 -324 498 -363Q478 -401 445 -422Q412 -443 366 -443Q326 -443 291 -425Q256 -406 235 -372Q214 -337 214 -288V-248Q214 -201 236 -168Q258 -134 293 -117Q328 -99 366 -99Z"/><path id="gf498" d="M63 214V95H165Q194 95 213 88Q233 80 246 64Q258 47 266 18L412 -543H545L384 48Q368 109 339 146Q310 182 264 198Q219 214 152 214ZM232 -12V-122H348V-12ZM185 -12 9 -543H149L316 -12Z"/><path id="ge2" d="M23 0 279 -730H478L742 0H618L387 -650L436 -626H315L366 -650L143 0ZM188 -206 227 -310H533L572 -206Z"/><path id="ge131" d="M218 0 27 -730H151L312 -79L269 -103H378L330 -79L460 -701H566L413 0ZM656 0 488 -701H599L746 -79L700 -103H808L764 -79L907 -730H1025L853 0Z"/><path id="ge302" d="M112 0V-538H229V0ZM32 -448V-538H229V-448ZM150 -614Q114 -614 96 -633Q79 -652 79 -682Q79 -711 97 -730Q114 -750 150 -750Q187 -750 204 -730Q222 -711 222 -682Q222 -652 204 -633Q187 -614 150 -614Z"/><path id="ge341" d="M86 0V-538H178V-308H168Q168 -388 189 -443Q211 -498 255 -527Q298 -555 364 -555H369Q468 -555 518 -492Q567 -429 567 -308V0H450V-324Q450 -380 418 -414Q386 -448 330 -448Q273 -448 238 -413Q203 -378 203 -319V0Z"/><path id="ge206" d="M310 18Q252 18 204 -3Q156 -24 121 -62Q86 -100 67 -150Q48 -200 48 -259V-278Q48 -336 66 -386Q85 -437 119 -475Q153 -513 200 -534Q248 -556 306 -556Q368 -556 418 -530Q467 -503 497 -448Q528 -394 531 -310L491 -365V-730H608V0H515V-234H541Q538 -147 505 -91Q473 -35 422 -8Q371 18 310 18ZM332 -82Q376 -82 413 -103Q450 -123 472 -161Q495 -200 495 -252V-295Q495 -346 472 -382Q449 -418 412 -436Q375 -456 331 -456Q282 -456 244 -432Q207 -409 186 -367Q165 -325 165 -268Q165 -212 186 -170Q208 -128 246 -105Q284 -82 332 -82Z"/><path id="ge352" d="M339 18Q268 18 214 -5Q160 -28 123 -68Q86 -107 66 -157Q48 -206 48 -259V-278Q48 -332 67 -382Q87 -432 124 -471Q162 -511 216 -534Q270 -557 339 -557Q408 -557 461 -534Q515 -511 553 -471Q591 -432 610 -382Q630 -332 630 -278V-259Q630 -206 611 -157Q592 -107 555 -68Q518 -28 464 -5Q410 18 339 18ZM339 -84Q394 -84 433 -108Q472 -133 492 -175Q512 -216 512 -269Q512 -322 492 -364Q471 -406 432 -430Q393 -454 339 -454Q285 -454 246 -430Q207 -406 186 -364Q165 -322 165 -269Q165 -216 185 -175Q206 -133 245 -108Q284 -84 339 -84Z"/><path id="ge492" d="M256 0 362 -520H507L630 0H534L410 -518H455L347 0ZM211 0 211 -95H322L322 0ZM172 0 23 -538H136L280 0ZM561 0 561 -95H672L672 0ZM606 0 732 -538H838L707 0Z"/><path id="ge414" d="M272 16Q163 16 102 -30Q42 -76 39 -157H147Q149 -127 178 -102Q207 -77 272 -77Q329 -77 361 -99Q393 -120 393 -154Q393 -184 369 -202Q346 -219 290 -224L237 -230Q154 -239 105 -279Q57 -318 57 -387Q57 -441 84 -478Q111 -515 158 -535Q206 -554 268 -554Q364 -554 422 -512Q482 -470 484 -388H376Q375 -418 348 -440Q320 -461 268 -461Q218 -461 191 -441Q165 -421 165 -390Q165 -362 185 -346Q205 -330 250 -325L303 -320Q394 -310 448 -269Q501 -228 501 -157Q501 -105 472 -66Q443 -27 391 -5Q340 16 272 16Z"/><path id="ge491" d="M197 0 21 -538H142L313 0ZM230 0V-95H361V0ZM280 0 428 -538H542L389 0Z"/><path id="ge222" d="M320 18Q250 18 199 -6Q147 -30 114 -69Q80 -109 64 -159Q48 -208 48 -260V-278Q48 -332 64 -381Q80 -431 114 -470Q147 -510 197 -534Q248 -557 314 -557Q402 -557 460 -519Q518 -481 547 -420Q576 -360 576 -290V-243H98V-322H497L464 -282Q464 -336 448 -375Q431 -414 398 -436Q365 -458 314 -458Q263 -458 228 -434Q193 -410 176 -368Q158 -326 158 -269Q158 -215 176 -172Q193 -130 229 -105Q265 -81 320 -81Q377 -81 413 -105Q449 -130 457 -163H566Q555 -108 521 -66Q488 -26 437 -4Q386 18 320 18Z"/><path id="ge318" d="M92 0V-730H210V0ZM21 -640V-730H210V-640Z"/><path id="ge165" d="M386 18Q320 18 268 -11Q217 -40 187 -95Q158 -150 155 -228H178V0H86V-730H203V-370L168 -305Q171 -390 202 -446Q232 -502 282 -529Q332 -556 394 -556Q451 -556 498 -535Q544 -514 577 -476Q611 -438 628 -389Q646 -339 646 -281V-261Q646 -203 628 -153Q610 -102 576 -64Q541 -26 493 -4Q445 18 386 18ZM365 -82Q414 -82 451 -107Q488 -131 508 -173Q529 -216 529 -271Q529 -327 508 -368Q487 -410 450 -433Q414 -456 365 -456Q320 -456 283 -436Q245 -416 222 -378Q199 -340 199 -288V-244Q199 -194 222 -157Q246 -121 284 -102Q322 -82 365 -82Z"/><path id="ge400" d="M86 0V-538H178V-314H175Q175 -430 226 -488Q276 -545 376 -545H396V-442H360Q284 -442 244 -401Q203 -361 203 -286V0Z"/><path id="ge146" d="M411 0V-160H392V-342Q392 -393 366 -419Q340 -444 289 -444Q261 -444 227 -444Q193 -442 160 -441Q128 -440 102 -438V-539Q125 -541 152 -543Q178 -544 207 -545Q235 -546 260 -546Q343 -546 397 -525Q451 -504 478 -458Q504 -413 504 -337V0ZM236 14Q177 14 133 -7Q89 -27 65 -66Q41 -106 41 -160Q41 -219 68 -257Q96 -295 147 -314Q198 -333 269 -333H404V-256H266Q213 -256 185 -230Q156 -204 156 -164Q156 -123 185 -98Q213 -74 266 -74Q297 -74 325 -85Q353 -96 371 -124Q390 -151 392 -200L422 -161Q417 -104 394 -65Q372 -26 332 -6Q293 14 236 14Z"/><path id="ge498" d="M60 211V108H149Q180 108 202 101Q224 93 238 74Q252 56 260 25L418 -538H531L361 53Q345 110 316 144Q288 180 244 195Q200 211 140 211ZM226 -12V-107H342V-12ZM197 -12 14 -538H132L308 -12Z"/><path id="ge197" d="M65 0V-141H201V0ZM65 -358V-498H201V-358Z"/><path id="ge180" d="M320 18Q250 18 199 -5Q148 -29 115 -70Q81 -110 64 -160Q48 -209 48 -260V-278Q48 -331 64 -380Q82 -430 116 -470Q150 -510 200 -533Q251 -557 319 -557Q388 -557 443 -531Q497 -504 530 -457Q563 -410 567 -346H454Q448 -392 413 -423Q378 -454 319 -454Q267 -454 233 -430Q199 -406 182 -364Q165 -322 165 -269Q165 -217 182 -175Q198 -133 233 -109Q267 -84 320 -84Q361 -84 390 -99Q420 -114 438 -138Q456 -163 459 -195H573Q570 -130 536 -82Q502 -35 446 -8Q390 18 320 18Z"/><path id="ge296" d="M86 0V-730H203V-299H179Q179 -379 200 -437Q220 -494 263 -524Q305 -555 370 -555H375Q470 -555 518 -491Q567 -427 567 -307V0H450V-324Q450 -382 416 -415Q383 -448 330 -448Q273 -448 238 -410Q203 -372 203 -311V0Z"/><path id="ge442" d="M307 6Q240 6 194 -12Q148 -30 124 -74Q100 -118 100 -193L101 -696H212L212 -182Q212 -141 234 -118Q256 -96 298 -96H388V6ZM12 -452V-538H388V-452Z"/><path id="ge277" d="M292 211Q254 211 215 208Q176 205 142 200V102Q178 106 218 110Q258 113 294 113Q364 113 406 95Q449 78 468 40Q488 2 488 -58V-162L519 -234Q516 -156 486 -103Q457 -50 408 -23Q360 4 298 4Q242 4 196 -17Q150 -38 117 -76Q84 -114 66 -163Q48 -213 48 -269V-288Q48 -345 66 -394Q85 -443 119 -479Q153 -516 200 -536Q248 -556 304 -556Q371 -556 422 -527Q472 -498 501 -444Q530 -389 532 -310L506 -307V-538H599V-64Q599 34 568 94Q536 155 468 183Q401 211 292 211ZM327 -100Q371 -100 407 -119Q444 -138 465 -175Q487 -212 487 -263V-304Q487 -354 464 -388Q442 -423 406 -441Q370 -458 328 -458Q280 -458 243 -436Q206 -414 185 -374Q165 -333 165 -278Q165 -224 186 -183Q206 -143 243 -121Q280 -100 327 -100Z"/><path id="ge468" d="M270 16Q176 16 125 -45Q74 -107 74 -227V-539H191V-211Q191 -155 222 -122Q253 -90 306 -90Q360 -90 394 -125Q428 -159 428 -219V-539H546V0H453V-230H464Q464 -149 443 -94Q422 -40 381 -12Q339 16 276 16Z"/><path id="ge198" d="M112 162 20 126 117 -148 214 -111Z"/><path id="ge374" d="M86 200V-538H178V-306L161 -307Q166 -392 196 -447Q228 -502 278 -529Q330 -556 391 -556Q449 -556 496 -534Q543 -513 577 -475Q610 -437 628 -387Q646 -336 646 -279V-260Q646 -202 628 -152Q610 -102 576 -64Q542 -26 495 -4Q448 18 390 18Q331 18 280 -7Q228 -32 196 -87Q163 -142 159 -230L203 -156V200ZM365 -82Q414 -82 451 -106Q488 -130 508 -172Q529 -215 529 -270Q529 -325 508 -367Q488 -408 451 -432Q414 -456 365 -456Q320 -456 283 -436Q245 -416 222 -378Q199 -340 199 -288V-244Q199 -194 222 -157Q246 -121 284 -102Q322 -82 365 -82Z"/><path id="ge37" d="M98 0V-730H218V0ZM198 -314V-418L500 -419V-315ZM198 -626V-730H516V-626Z"/><path id="ge331" d="M86 0V-538H178V-307H168Q168 -387 188 -442Q209 -497 250 -526Q292 -555 354 -555H359Q422 -555 463 -526Q505 -497 525 -442Q546 -387 546 -307H514Q514 -387 535 -442Q556 -497 598 -526Q640 -555 702 -555H707Q770 -555 812 -526Q854 -497 875 -442Q896 -387 896 -307V0H778V-324Q778 -382 749 -416Q720 -448 668 -448Q614 -448 582 -414Q550 -380 550 -319V0H432V-324Q432 -382 403 -416Q374 -448 322 -448Q268 -448 235 -414Q203 -380 203 -319V0Z"/><path id="ge381" d="M65 0V-141H201V0Z"/><path id="gc92" d="M65 -700H201V-115H551V0H65Z"/><path id="gc112" d="M55 -115V-585L170 -700H530L645 -585V-115L530 0H170ZM458 -116 509 -167V-533L458 -584H242L191 -533V-167L242 -116Z"/><path id="gc31" d="M55 -115V-585L170 -700H512L625 -587V-480H489V-537L442 -584H242L191 -533V-167L242 -116H442L489 -163V-220H625V-113L512 0H170Z"/><path id="gc4" d="M261 -700H385L641 0H503L446 -155H200L143 0H5ZM416 -267 323 -533H321L231 -267Z"/><path id="gc37" d="M65 -700H513L633 -580V-120L513 0H65ZM446 -116 497 -167V-533L446 -584H201V-116Z"/><path id="gc43" d="M65 -700H571V-585H201V-408H542V-295H201V-115H571V0H65Z"/><path id="gc189" d="M10 -700H150L324 -162H326L500 -700H640L391 0H259Z"/><path id="gc138" d="M65 -700H504L611 -592V-347L503 -238H201V0H65ZM442 -352 477 -387V-551L442 -586H201V-352Z"/><path id="gc101" d="M65 -700H191L399 -248H401L610 -700H736V0H605V-426H603L442 -98H358L198 -426H196V0H65Z"/><path id="gc103" d="M65 -700H187L499 -225H501V-700H632V0H510L198 -474H196V0H65Z"/><path id="gc158" d="M224 -585H15V-700H569V-585H360V0H224Z"/><path id="gc74" d="M70 -700H206V0H70Z"/><path id="gc554" d="M40 -247V-311L83 -354H156L198 -310V-248L156 -204H83Z"/></defs><path d="M26 8H608L608 8V178L590 196H8L8 196V26Z" fill="url(#card)"/><path d="M26 8H608L608 8V178L590 196H8L8 196V26Z" fill="url(#grid)" opacity=".3"/><path d="M26 8H608L608 8V178L590 196H8L8 196V26Z" fill="none" stroke="#4F8DFF" stroke-opacity=".55" stroke-width="1.5"/><path d="M9 66V26L26 9H86" fill="none" stroke="#4F8DFF" stroke-width="3"/><g clip-path="url(#thumb)"><rect x="24" y="24" width="156" height="156" fill="url(#art)"/><rect x="54" y="60" width="96" height="66" rx="4" fill="none" stroke="#fff" stroke-width="5"/><path d="M92 79V107L116 93Z" fill="#fff"/><path d="M58 144H84M94 144H120M130 144H146" stroke="#fff" stroke-width="5" opacity=".85"/><rect x="24" y="24" width="156" height="156" fill="url(#scan)" opacity=".5"/></g><path d="M40 24H180L180 24V164L164 180H24L24 180V40Z" fill="none" stroke="#4F8DFF" stroke-opacity=".7"/><g transform="translate(202 56) scale(0.022)" fill="#F6F3FF"><use xlink:href="#ga199"/><use xlink:href="#ga558" x="964"/><use xlink:href="#ga564" x="2187"/><use xlink:href="#ga501" x="2992"/><use xlink:href="#ga55" x="3326"/><use xlink:href="#ga630" x="4255"/><use xlink:href="#ga363" x="4813"/><use xlink:href="#ga558" x="5652"/><use xlink:href="#ga363" x="6878"/></g><g transform="translate(202 82) scale(0.0145)" fill="#4F8DFF"><use xlink:href="#gf137"/><use xlink:href="#gf352" x="599"/><use xlink:href="#gf468" x="1278"/><use xlink:href="#gf400" x="1917"/><use xlink:href="#gf414" x="2550"/><use xlink:href="#gf296" x="3099"/><use xlink:href="#gf352" x="3747"/><use xlink:href="#gf492" x="4414"/><use xlink:href="#gf414" x="5306"/><use xlink:href="#gf302" x="6071"/><use xlink:href="#gf341" x="6396"/><use xlink:href="#gf352" x="7260"/><use xlink:href="#gf341" x="7939"/><use xlink:href="#gf222" x="8587"/><use xlink:href="#gf318" x="9423"/><use xlink:href="#gf352" x="9728"/><use xlink:href="#gf180" x="10407"/><use xlink:href="#gf146" x="11017"/><use xlink:href="#gf318" x="11605"/><use xlink:href="#gf318" x="12126"/><use xlink:href="#gf302" x="12431"/><use xlink:href="#gf165" x="12756"/><use xlink:href="#gf400" x="13455"/><use xlink:href="#gf146" x="13869"/><use xlink:href="#gf400" x="14457"/><use xlink:href="#gf498" x="14891"/></g><g transform="translate(202 106) scale(0.0135)" fill="#C4BAEC"><use xlink:href="#ge2"/><use xlink:href="#ge131" x="987"/><use xlink:href="#ge302" x="2027"/><use xlink:href="#ge341" x="2344"/><use xlink:href="#ge206" x="2988"/><use xlink:href="#ge352" x="3682"/><use xlink:href="#ge492" x="4349"/><use xlink:href="#ge414" x="5218"/><use xlink:href="#ge491" x="5983"/><use xlink:href="#ge302" x="6555"/><use xlink:href="#ge206" x="6872"/><use xlink:href="#ge222" x="7566"/><use xlink:href="#ge352" x="8182"/><use xlink:href="#ge318" x="9082"/><use xlink:href="#ge302" x="9378"/><use xlink:href="#ge165" x="9695"/><use xlink:href="#ge400" x="10389"/><use xlink:href="#ge146" x="10801"/><use xlink:href="#ge400" x="11382"/><use xlink:href="#ge498" x="11814"/><use xlink:href="#ge197" x="12369"/><use xlink:href="#ge414" x="12857"/><use xlink:href="#ge222" x="13400"/><use xlink:href="#ge146" x="14016"/><use xlink:href="#ge400" x="14597"/><use xlink:href="#ge180" x="15006"/><use xlink:href="#ge296" x="15614"/><use xlink:href="#ge146" x="16258"/><use xlink:href="#ge165" x="16839"/><use xlink:href="#ge318" x="17533"/><use xlink:href="#ge222" x="17829"/><use xlink:href="#ge180" x="18667"/><use xlink:href="#ge146" x="19275"/><use xlink:href="#ge442" x="19856"/><use xlink:href="#ge146" x="20283"/><use xlink:href="#ge318" x="20864"/><use xlink:href="#ge352" x="21160"/><use xlink:href="#ge277" x="21838"/><use xlink:href="#ge468" x="22517"/><use xlink:href="#ge222" x="23151"/><use xlink:href="#ge198" x="23759"/><use xlink:href="#ge222" x="24247"/><use xlink:href="#ge374" x="24863"/><use xlink:href="#ge302" x="25557"/><use xlink:href="#ge414" x="25874"/><use xlink:href="#ge352" x="26417"/><use xlink:href="#ge206" x="27095"/><use xlink:href="#ge222" x="27789"/></g><g transform="translate(202 125) scale(0.0135)" fill="#C4BAEC"><use xlink:href="#ge374"/><use xlink:href="#ge318" x="694"/><use xlink:href="#ge146" x="990"/><use xlink:href="#ge498" x="1567"/><use xlink:href="#ge222" x="2111"/><use xlink:href="#ge400" x="2727"/><use xlink:href="#ge492" x="3363"/><use xlink:href="#ge302" x="4236"/><use xlink:href="#ge442" x="4553"/><use xlink:href="#ge296" x="4982"/><use xlink:href="#ge414" x="5848"/><use xlink:href="#ge146" x="6391"/><use xlink:href="#ge491" x="6968"/><use xlink:href="#ge222" x="7529"/><use xlink:href="#ge206" x="8145"/><use xlink:href="#ge374" x="9061"/><use xlink:href="#ge400" x="9755"/><use xlink:href="#ge352" x="10164"/><use xlink:href="#ge277" x="10842"/><use xlink:href="#ge400" x="11521"/><use xlink:href="#ge222" x="11930"/><use xlink:href="#ge414" x="12546"/><use xlink:href="#ge414" x="13089"/><use xlink:href="#ge198" x="13623"/><use xlink:href="#ge146" x="14111"/><use xlink:href="#ge341" x="14692"/><use xlink:href="#ge206" x="15336"/><use xlink:href="#ge146" x="16252"/><use xlink:href="#ge414" x="17055"/><use xlink:href="#ge442" x="17598"/><use xlink:href="#ge468" x="18027"/><use xlink:href="#ge206" x="18661"/><use xlink:href="#ge302" x="19355"/><use xlink:href="#ge352" x="19672"/><use xlink:href="#ge442" x="20572"/><use xlink:href="#ge296" x="21001"/><use xlink:href="#ge146" x="21645"/><use xlink:href="#ge442" x="22226"/><use xlink:href="#ge180" x="22877"/><use xlink:href="#ge352" x="23485"/><use xlink:href="#ge341" x="24163"/><use xlink:href="#ge491" x="24803"/><use xlink:href="#ge222" x="25364"/><use xlink:href="#ge400" x="25980"/><use xlink:href="#ge442" x="26405"/><use xlink:href="#ge414" x="26830"/></g><g transform="translate(202 144) scale(0.0135)" fill="#C4BAEC"><use xlink:href="#ge468"/><use xlink:href="#ge374" x="634"/><use xlink:href="#ge318" x="1328"/><use xlink:href="#ge352" x="1624"/><use xlink:href="#ge146" x="2302"/><use xlink:href="#ge206" x="2883"/><use xlink:href="#ge414" x="3577"/><use xlink:href="#ge492" x="4342"/><use xlink:href="#ge302" x="5215"/><use xlink:href="#ge442" x="5532"/><use xlink:href="#ge296" x="5961"/><use xlink:href="#ge37" x="6827"/><use xlink:href="#ge37" x="7387"/><use xlink:href="#ge331" x="7940"/><use xlink:href="#ge374" x="8913"/><use xlink:href="#ge222" x="9607"/><use xlink:href="#ge277" x="10223"/><use xlink:href="#ge381" x="10902"/></g><path d="M208.6 173H356.5L356.5 173V188.4L349.9 195H202L202 195V179.6Z" fill="#4F8DFF" fill-opacity=".14" stroke="#4F8DFF" stroke-opacity=".85"/><rect x="211.9" y="181.1" width="5.7" height="5.7" fill="#4F8DFF"/><g transform="translate(222.9 187.7) scale(0.0105)" fill="#4F8DFF"><use xlink:href="#gc92"/><use xlink:href="#gc112" x="626"/><use xlink:href="#gc31" x="1406"/><use xlink:href="#gc4" x="2136"/><use xlink:href="#gc92" x="2862"/><use xlink:href="#gc37" x="3855"/><use xlink:href="#gc43" x="4623"/><use xlink:href="#gc189" x="5309"/><use xlink:href="#gc43" x="6039"/><use xlink:href="#gc92" x="6725"/><use xlink:href="#gc112" x="7351"/><use xlink:href="#gc138" x="8131"/><use xlink:href="#gc101" x="8857"/><use xlink:href="#gc43" x="9738"/><use xlink:href="#gc103" x="10424"/><use xlink:href="#gc158" x="11201"/></g><g transform="translate(368.5 188) scale(0.0105)" fill="#4F8DFF"><use xlink:href="#gc101"/><use xlink:href="#gc43" x="961"/><use xlink:href="#gc37" x="1727"/><use xlink:href="#gc74" x="2575"/><use xlink:href="#gc4" x="3011"/><use xlink:href="#gc554" x="4249"/><use xlink:href="#gc92" x="5079"/><use xlink:href="#gc112" x="5785"/><use xlink:href="#gc31" x="6645"/><use xlink:href="#gc4" x="7455"/><use xlink:href="#gc92" x="8261"/><use xlink:href="#gc4" x="9414"/><use xlink:href="#gc138" x="10220"/><use xlink:href="#gc138" x="11026"/></g></svg>
